<svg xmlns="http://www.w3.org/2000/svg" viewBox="0 0 512 512" id="CarKey"><g data-name="Car Key" fill="#000000" class="color000000 svgShape"><path fill="#2d1919" d="M202.46,169.62a70.81,70.81,0,1,1,70.81-70.81A70.88,70.88,0,0,1,202.46,169.62Zm0-133.62a62.81,62.81,0,1,0,62.81,62.81A62.88,62.88,0,0,0,202.46,36Z" class="color2d1929 svgShape"></path><path fill="#f98786" d="M169.58,419.26l-4.87-5.48a5.86,5.86,0,0,1-.39-7.29l6.31-8.83a5.85,5.85,0,0,0-.07-6.9l-6.11-8.19a5.85,5.85,0,0,1,.29-7.36l4.89-5.56a5.86,5.86,0,0,0-.09-7.84L165,356.93a5.85,5.85,0,0,1-.27-7.63l5.06-6.31a5.83,5.83,0,0,0-.45-7.81L165.13,331a5.85,5.85,0,0,1-.66-7.53L172,312.75a5.86,5.86,0,0,0,1.08-3.38v-80a5.85,5.85,0,0,0-5.85-5.85H128a5.85,5.85,0,0,0-5.85,5.85v84.46a5.84,5.84,0,0,0,1.14,3.47l4.76,6.47a5.84,5.84,0,0,1-.32,7.34l-2,2.26a5.85,5.85,0,0,0,.18,7.94l2,2.06a5.86,5.86,0,0,1,1,6.82l-5.21,9.77.57,96.57q6.15,11.22,12.31,22.45a5.85,5.85,0,0,0,9.28,1.31l23.93-24.11a5.86,5.86,0,0,0,.71-7.38l-6.26-9.31a5.86,5.86,0,0,1,.57-7.24l4.74-5.1A5.85,5.85,0,0,0,169.58,419.26Z" class="color86ebf9 svgShape"></path><path fill="#d81615" d="M205.48,118.54H89.8a14,14,0,0,0-14,14v67.23A60.17,60.17,0,0,0,135.93,260h27.72a55.87,55.87,0,0,0,55.87-55.88V132.59A14,14,0,0,0,205.48,118.54Zm-57.84,43.51c-16.79,0-30.39-5.57-30.39-12.45s13.6-12.45,30.39-12.45S178,142.72,178,149.6,164.43,162.05,147.64,162.05Z" class="color1573d8 svgShape"></path><path fill="#ef2928" d="M140.62,250.7A55.57,55.57,0,0,1,85,195.13V137.28a9.45,9.45,0,0,1,9.45-9.45h106.3a9.45,9.45,0,0,1,9.45,9.45v62.14A51.28,51.28,0,0,1,159,250.7ZM108,149.6c0,29,79.36,29,79.36,0S108,120.61,108,149.6Z" class="color287eef svgShape"></path><rect width="10.69" height="177.58" x="142.29" y="278.31" fill="#d64140" rx="5.07" class="color40c2d6 svgShape"></rect><path fill="#ffffff" d="M85 174.88s-5 66.19 44.2 74.65C129.24 249.53 89.73 222.58 85 174.88zM131.75 294.49l3 145.21S147.36 335.19 131.75 294.49z" class="colorffffff svgShape"></path><rect width="60.79" height="26.73" x="117.25" y="185.48" fill="#b31312" rx="10.38" class="colore73f46 svgShape"></rect><path fill="#b31312" d="M297.76,77.69C271.85,76,245.64,91.39,233.38,118s-6.92,56.58,11.23,75.15a28.68,28.68,0,0,0,11.5,9.57L363,252a28.87,28.87,0,0,0,38.3-14.16l32.26-70.1a28.88,28.88,0,0,0-14.16-38.3L312.51,80.2A28.76,28.76,0,0,0,297.76,77.69Zm-22,59.85c-6,13.05-15.87,21.32-22,18.48s-6.3-15.71-.3-28.76,15.87-21.32,22-18.48S281.76,124.5,275.75,137.54Z" class="colore73f46 svgShape"></path><path fill="#de605f" d="M364.93,241.11,261.25,193.4a21.08,21.08,0,0,1-8.43-7,50.6,50.6,0,0,1-10.09-14.3,4.82,4.82,0,0,1,6.57-6.35c20.85,9.6,44.57-26.8,41.15-50.73-1.09-7.6-4.84-13.24-10.55-15.87a4.83,4.83,0,0,1,.59-9.11,50.91,50.91,0,0,1,17.42-1.63,18.14,18.14,0,0,1,10.15,1.51l104.36,48a21,21,0,0,1,10.32,27.91l-29.9,65h0A21.06,21.06,0,0,1,364.93,241.11ZM246.34,170.35a46.77,46.77,0,0,0,9.45,13.33,17.8,17.8,0,0,0,7.14,6.09l103.68,47.71a17,17,0,0,0,22.6-8.36c.1,0-.84,1.83,29.9-65a17,17,0,0,0-8.36-22.61l-104.36-48a15.55,15.55,0,0,0-8.58-1.14,46.88,46.88,0,0,0-16.27,1.49.83.83,0,0,0-.07,1.57c7.63,3.45,11.76,10.72,12.94,19,1.24,8.67-.66,19.06-5.35,29.25-9.85,21.39-27.28,32.18-41.47,25.66l-.1-.05A.83.83,0,0,0,246.34,170.35Z" class="color6d5fde svgShape"></path><rect width="69.43" height="30.64" x="280.09" y="140.19" fill="#de605f" rx="9.25" transform="rotate(-65.29 314.812 155.512)" class="color6d5fde svgShape"></rect><rect width="69.43" height="30.64" x="311.89" y="154.83" fill="#de605f" rx="9.25" transform="rotate(-65.29 346.614 170.15)" class="color6d5fde svgShape"></rect><rect width="69.43" height="30.64" x="343.7" y="169.46" fill="#de605f" rx="9.25" transform="rotate(-65.29 378.422 184.781)" class="color6d5fde svgShape"></rect><rect width="58.89" height="20.1" x="285.36" y="145.46" fill="#b31312" rx="4.48" transform="rotate(-65.29 314.812 155.512)" class="colore73f46 svgShape"></rect><rect width="58.89" height="20.09" x="317.16" y="160.1" fill="#b31312" rx="4.48" transform="rotate(-65.29 346.614 170.15)" class="colore73f46 svgShape"></rect><rect width="58.89" height="20.1" x="348.97" y="174.73" fill="#b31312" rx="4.48" transform="rotate(-65.29 378.422 184.781)" class="colore73f46 svgShape"></rect><path fill="#ffffff" d="M264 197.11c-2.69-1.1-24.6-10.54-30.87-34.36a51.33 51.33 0 013-33.65C230.11 156.11 241.88 181.42 264 197.11zM294.13 208.65c29.55 17.36 52.24 27.8 66.53 33.81 5.63 2.36 13.74 5.63 22 2.59 13.89-5.11 18-24.22 18.89-29-5.33 13.34-14.42 26.42-28.5 23.36C354.59 235.45 303.56 212.85 294.13 208.65z" class="colorffffff svgShape"></path><path fill="#2d1919" d="M203.41,171c-27.85,0-46.64-17.91-50.29-21.69a4,4,0,1,1,5.76-5.56c3.43,3.55,21.91,21.15,48.94,19.08,22-1.7,41.7-15.72,51.35-36.6a4,4,0,0,1,7.27,3.35C254.65,155,229.82,171,203.41,171Z" class="color2d1929 svgShape"></path></g></svg>