<svg xmlns="http://www.w3.org/2000/svg" data-name="Layer 1" viewBox="0 0 32 32" id="Moneysack"><path fill="#f83a39" d="M20.435 9.5h-9L8.861 3.352a1 1 0 0 1 1.373-1.325l1.387.757a2 2 0 0 0 2.372-.342l.528-.528a2 2 0 0 1 2.828 0l.528.528a2 2 0 0 0 2.372.342l1.387-.757a1 1 0 0 1 1.373 1.325zM22.185 31.5H9.555a6 6 0 0 1-5.821-4.545l-.015-.06a13 13 0 0 1 3.7-12.62L10.37 11.5h12l2.653 2.83a13 13 0 0 1 3.128 12.044l-.145.581A6 6 0 0 1 22.185 31.5z" class="colorf8a839 svgShape"></path><circle cx="15.87" cy="21.5" r="6" fill="#fe5655" class="colorfedc55 svgShape"></circle><rect width="13.112" height="2.289" x="9.453" y="9.355" fill="#b31312" rx="1.074" ry="1.074" class="colore1762e svgShape"></rect><path d="M16,15a6.5,6.5,0,1,0,6.5,6.5A6.508,6.508,0,0,0,16,15Zm0,12a5.5,5.5,0,1,1,5.5-5.5A5.507,5.507,0,0,1,16,27Zm9.519-13.011-2.627-2.8a1.481,1.481,0,0,0,.174-.686,1.5,1.5,0,0,0-1.5-1.5h-.249l2.27-5.424a1.5,1.5,0,0,0-2.06-1.988l-1.387.756a1.507,1.507,0,0,1-1.779-.256l-.527-.528a2.5,2.5,0,0,0-3.536,0l-.527.528a1.51,1.51,0,0,1-1.779.256L10.6,1.588A1.5,1.5,0,0,0,8.53,3.545L10.814,9h-.249a1.493,1.493,0,0,0-.953,2.649l-2.4,2.263A13.538,13.538,0,0,0,3.379,27.076,6.49,6.49,0,0,0,9.685,32H22.315a6.49,6.49,0,0,0,6.306-4.923l.146-.581A13.446,13.446,0,0,0,25.519,13.989ZM9.438,3.128a.5.5,0,0,1,.687-.663l1.387.756A2.515,2.515,0,0,0,14.477,2.8L15,2.268a1.5,1.5,0,0,1,2.122,0l.527.528a2.515,2.515,0,0,0,2.965.427L22,2.466a.485.485,0,0,1,.587.079.5.5,0,0,1,.086.614L20.232,9H11.9ZM10.565,10h11a.5.5,0,1,1,0,1h-11a.5.5,0,0,1,0-1ZM27.8,26.253l-.146.581A5.491,5.491,0,0,1,22.315,31H9.685a5.51,5.51,0,0,1-5.351-4.226A12.512,12.512,0,0,1,7.894,14.64L10.7,12H22.283l2.506,2.672A12.449,12.449,0,0,1,27.8,26.253ZM15.5,19h1a1,1,0,0,1,1,1,.5.5,0,0,0,1,0,2,2,0,0,0-2-2v-.5a.5.5,0,0,0-1,0V18a2,2,0,0,0,0,4h1a1,1,0,0,1,0,2h-1a1,1,0,0,1-1-1,.5.5,0,0,0-1,0,2,2,0,0,0,2,2v.5a.5.5,0,0,0,1,0V25a2,2,0,0,0,0-4h-1a1,1,0,0,1,0-2Z" fill="#000000" class="color000000 svgShape"></path></svg>