<svg xmlns="http://www.w3.org/2000/svg" viewBox="0 0 24 24" id="peugeot"><path d="M22.946 22.17c-.443-1.323-2.232-4.644-3.639-6.512-.896-1.195 2.799-1.589 1.611-4.733-1.043-2.746-2.979-5.267-2.375-6.918.25-.674.612-.703.886-.699.416.008.089.385.569 1.662.552 1.456 2.486 2.728 2.315 1.997-.87-3.528-.995-4.055-1.428-4.461-.433-.407-1.087-.627-1.641-.605-1.642.064-1.714 1.668-2.057 1.434-.354-.247-1.384-1.108-1.479-1.647-.056-.318-.112-.363-.431-.487-1.132-.441-3.373-1.36-4.562-1.14-2.604.485-2.706 1.326-3.009 1.425-.236.077-1.112.403-1.413.577-.187.11-.289.224-.193.436.168.374.672 1.151.893 1.347.113.1.662.3.714.2.279-.55 1.302-.657 1.485-.525.267.197.591.75.277.882-.221.092-1.256.311-1.542.062-.023-.025-.081-.062-.125-.003-.214.292-.615.213-.414.566.562.97.941 1.458 1.713.906.274-.197.452-.196.527-.141.422.319.161.506-.451 1.281-.088.113-.171.173-.33.097C5.013 5.33 4.358 4.442 1.996 4.873c-.432.08-1.261.916-1.305 1.359-.014.139.158.834.465.8.139-.016.486-.196.901-.124.598.102.273.716.589.71.763-.01 2.188 1.052 1.668 1.105-.77.068-3.38.435-3.787 1.144-.592 1.023-.732 1.628-.059 2.271.367.358 1.209-1.037 1.906-.052.069.098.136.03.394-.04.324-.087 4.358-.248 5.308.278.418.23 1.177.945 1.177.945-1.666 2.883-2.952 4.876-2.87 6.004.113 1.481.145 1.368-.494 1.524-2.419.616-3.13-.231-3.245 2.958-.021.457-.15.074 2.941.068 4.861-.027 4.049.895 3.995-1.294-.011-.406-.073-.818.294-1.213 3.549-3.86 3.395-3.992 3.702-3.714.207.19 2.476 1.825 2.936 2.159.462.334.89.448 1.415.455.375.006.479.66.16.72-1.71.33-2.248.138-2.329 2.842-.024.446-.064-.034 2.972.061 4.403.133 1.948.589 4.091-1.168.208-.171.213-.242.125-.501zm-5.65-9.21c-.16-.152-1.461-1.716-1.878-2.194-.903-1.032 1.154-1.221 1.978-1.651.482-.256.437-.472.444-1.207.002-.101.132-.181.199-.063 1.837 3.394 2.074 3.63 1.533 4.295-.25.308-1.697 1.373-2.276.82z"></path></svg>