<svg xmlns="http://www.w3.org/2000/svg" viewBox="0 0 24 24" id="renault"><path d="M14.31 24H9.719c-.721 0-1.013-.268-1.251-.701l-.305-.541a.749.749 0 0 1 .007-.748l3.402-5.802 2.812-4.237-2.948-4.479a.753.753 0 0 1-.021-.793l3.199-5.44a.75.75 0 0 1 .642-.37h.005a.75.75 0 0 1 .642.362l5.836 9.658a.352.352 0 0 1 .012.02c.655 1.162.174 1.929-1.615 4.781-.985 1.572-2.476 3.948-4.552 7.555-.294.521-.664.735-1.274.735zm-4.571-1.5h4.551c2.107-3.654 3.591-6.018 4.574-7.586 1.599-2.548 1.771-2.897 1.584-3.239l-5.179-8.57-2.325 3.953 2.965 4.502a.75.75 0 0 1-.001.828l-3.064 4.614-3.162 5.395.057.103z"></path><path d="M8.816 23.14H8.81a.746.746 0 0 1-.646-.38c-2.104-3.719-3.578-6.006-4.552-7.519-1.54-2.392-2.005-3.113-1.331-4.311 2.421-3.95 3.901-6.46 4.785-7.959C8.757.104 8.827-.022 9.691 0c1.662.043 2.75.017 3.47 0 1.377-.036 2.009-.048 2.486.799l.267.473a.75.75 0 0 1-.007.749l-3.2 5.439-3.019 4.515 2.99 4.492a.748.748 0 0 1 .022.795L9.463 22.77a.751.751 0 0 1-.647.37zM9.727 1.5c-.201.255-.66 1.032-1.368 2.232-.887 1.503-2.37 4.02-4.784 7.958-.19.339-.132.516 1.299 2.738.881 1.369 2.166 3.364 3.953 6.465l2.344-3.987-3.007-4.518a.75.75 0 0 1 .001-.833l3.273-4.895 2.958-5.03-.055-.097c-.1-.061-.606-.049-1.144-.036-.733.019-1.841.046-3.47.003z"></path></svg>