<svg xmlns="http://www.w3.org/2000/svg" viewBox="0 0 32 32" id="24HoursService"><path d="M15,26a1,1,0,0,1-1,1A11,11,0,1,1,25,16a1,1,0,0,1-2,0,9,9,0,1,0-9,9A1,1,0,0,1,15,26ZM13,10v5H10a1,1,0,0,0,0,2h4a1,1,0,0,0,1-1V10a1,1,0,0,0-2,0Zm8,8H17a1,1,0,0,0,0,2h3v1H17a1,1,0,0,0-1,1v3a1,1,0,0,0,1,1h4a1,1,0,0,0,0-2H18V23h3a1,1,0,0,0,1-1V19A1,1,0,0,0,21,18Zm7,0a1,1,0,0,0-1,1v2H25V19a1,1,0,0,0-2,0v3a1,1,0,0,0,1,1h3v2a1,1,0,0,0,2,0V19A1,1,0,0,0,28,18Z" data-name="24 Hours" fill="#b31312" class="color000000 svgShape"></path></svg>