<svg xmlns="http://www.w3.org/2000/svg" data-name="Layer 1" viewBox="0 0 64 64" id="Location"><path fill="#b31312" d="M50.4,18.41a18.4,18.4,0,1,0-36.8,0C13.6,28.57,32,54.26,32,54.26S50.4,28.57,50.4,18.41ZM20,18.41a12,12,0,1,1,12,12A12,12,0,0,1,20,18.41Z" class="color1e252d svgShape"></path><path fill="#b31312" d="M41.26,43c-1.38,2.25-2.72,4.33-3.9,6.11,5,.68,8.5,2.28,8.5,4.16,0,2.48-6.2,4.5-13.86,4.5s-13.86-2-13.86-4.5c0-1.89,3.52-3.49,8.51-4.16-1.18-1.78-2.52-3.87-3.9-6.12C10.65,44.36,1.91,48.42,1.91,53.23,1.91,59.18,15.38,64,32,64s30.09-4.82,30.09-10.77C62.09,48.42,53.35,44.36,41.26,43Z" class="color1e252d svgShape"></path></svg>