<svg xmlns="http://www.w3.org/2000/svg" viewBox="0 0 24 24" id="toyota"><path d="M19.475 6.362c.033.093.05.187.05.28a.89.89 0 0 1-.131.452c-.421.722-1.839 1.354-3.795 1.697-.347-2.051-1.08-3.686-2.03-4.553 3.123.222 5.54 1.085 5.906 2.124zM12 6.284c.745 0 1.396 1.047 1.71 2.736a23.449 23.449 0 0 1-3.42 0c.314-1.687.964-2.736 1.71-2.736zm-7.475.078c.366-1.039 2.783-1.902 5.907-2.124-.95.867-1.684 2.502-2.03 4.553-1.957-.344-3.376-.976-3.796-1.697a.89.89 0 0 1-.131-.452c0-.093.016-.187.05-.28zM.001 11.627c0-1.504.755-2.943 2.176-4.171.435 1.616 2.714 2.981 6.007 3.587l-.01.53c0 3.227.815 5.971 2.135 7.254-5.89-.506-10.308-3.576-10.308-7.2zM12 16.331c-1.069.001-1.907-2.209-1.907-5.031v-.006a22.563 22.563 0 0 0 3.814 0v.006c0 2.821-.838 5.031-1.907 5.031zm1.691 2.495c1.32-1.283 2.135-4.027 2.135-7.254 0 0-.007-.432-.01-.53 3.293-.606 5.571-1.971 6.007-3.587C23.245 8.683 24 10.122 24 11.627c0 3.624-4.418 6.694-10.309 7.199z"></path></svg>